<svg xmlns="http://www.w3.org/2000/svg" xmlns:xlink="http://www.w3.org/1999/xlink" width="250" height="62" viewBox="0 0 250 62"><title>logo/hunters logo</title><defs><path id="a" d="M25.841.122H.883v31.436h24.958V.122z"></path></defs><g fill="none" fill-rule="evenodd"><path fill="#FEFEFE" d="M41.751 48.312v3.445H46v-3.445h1.582v8.186H46V53.04h-4.248v3.457H40.17v-8.186zm13.586 0v1.236h-3.709v2.15h3.551v1.237h-3.55v2.326h3.79v1.237h-5.373v-8.186zm5.288 3.492c.414 0 .74-.104.976-.311.236-.207.354-.49.354-.85 0-.374-.117-.654-.35-.84-.236-.186-.57-.278-1.003-.278h-.985v2.279h1.008zm.357-3.492c.77 0 1.397.213 1.881.638.485.426.727.98.727 1.665 0 .464-.12.87-.36 1.215-.24.346-.597.619-1.07.818.262.14.494.332.697.574.204.242.456.65.756 1.225.5.992.871 1.675 1.114 2.05h-1.764a9.788 9.788 0 0 1-.492-.861c-.453-.871-.785-1.458-.996-1.761-.21-.302-.414-.517-.61-.644a1.208 1.208 0 0 0-.674-.191h-.574v3.457h-1.582v-8.185h2.947zm11.213 0v1.236h-3.709v2.15h3.551v1.237h-3.551v2.326h3.791v1.237h-5.373v-8.186zm12.884 0v1.236h-2.906v6.95H80.59v-6.95h-2.907v-1.236zm3.167 4.095c0 .543.123 1.031.37 1.465.245.433.588.77 1.027 1.008.44.238.937.357 1.492.357.84 0 1.53-.264 2.071-.79.541-.528.811-1.208.811-2.04 0-.543-.122-1.032-.366-1.468a2.541 2.541 0 0 0-1.03-1.01 3.112 3.112 0 0 0-1.498-.358c-.555 0-1.054.12-1.497.36a2.52 2.52 0 0 0-1.023 1.008 2.99 2.99 0 0 0-.357 1.468m2.89-4.2c.846 0 1.61.174 2.287.523.677.35 1.218.854 1.62 1.512.402.658.603 1.38.603 2.165 0 .766-.196 1.476-.588 2.13a4.051 4.051 0 0 1-1.618 1.523c-.685.362-1.458.542-2.317.542-.848 0-1.618-.183-2.312-.55a4.084 4.084 0 0 1-1.62-1.515 4.061 4.061 0 0 1-.58-2.13c0-.75.194-1.455.58-2.115.387-.66.92-1.173 1.6-1.538.68-.366 1.461-.548 2.344-.548m14.463 0c1.008 0 2.008.225 3 .674v1.447c-.992-.504-1.969-.756-2.93-.756-.597 0-1.129.12-1.593.358a2.56 2.56 0 0 0-1.08 1.028 2.958 2.958 0 0 0-.385 1.497c0 .836.278 1.51.835 2.02.556.508 1.29.763 2.2.763.25 0 .49-.02.718-.064.228-.043.501-.125.817-.246v-1.36h-1.353v-1.236h2.935v3.375a4.748 4.748 0 0 1-1.45.66 6.508 6.508 0 0 1-1.76.236c-.864 0-1.646-.177-2.348-.533a3.989 3.989 0 0 1-2.229-3.638c0-.8.198-1.526.595-2.174a4.027 4.027 0 0 1 1.658-1.512c.71-.359 1.5-.539 2.37-.539m10.683.106v1.236h-3.709v2.15h3.551v1.237h-3.551v2.326h3.791v1.237h-5.373v-8.186zm9.549 0v1.236h-2.906v6.95h-1.582v-6.95h-2.907v-1.236zm10.735 3.524c.02 1.42 0 2.601-.16 4.101h.06c.94-1.82 1.5-3.68 1.82-5.66.08-.44.18-.962.2-1.22.08-.64.32-.842.68-.842.6 0 1.24.261 1.26.901 0 .34-.68 2.72-2.04 5.16-1.22 2.181-2.6 4.461-3.8 5.722-1.321 1.4-2.541 1.88-3.501 1.88-.741 0-1.52-.48-1.54-1.36-.021-.76.54-1.3 1.2-1.3.42 0 .66.26.88.58.36.52.6.68.92.68.22 0 .5-.18.8-.52.36-.42.68-1.06.84-1.88.16-.8.3-1.9.24-4.12-.06-2.422-.24-3.962-.78-3.962-.4 0-.98.98-1.26 1.62-.18.16-.58.06-.66-.16.38-1.1 1.32-3.24 3.06-3.24 1.04 0 1.72.88 1.78 3.62m9.041-1.98c-.72.9-1.98 3.3-1.98 5.22 0 .5.239.822.62.822.5 0 .94-.46 1.48-1.341.54-.9 1.52-3.1 1.52-4.621 0-.42-.12-.84-.56-.84-.32 0-.66.24-1.08.76m3.88 1.28c0 1.44-.7 3.12-1.86 4.24-1.04 1-2.24 1.402-3.4 1.402-2.041 0-2.921-1.38-2.901-2.781.02-1.54.76-3.361 2.1-4.521 1.16-1 2.22-1.26 3.12-1.26 2.142 0 2.942 1.48 2.942 2.92m6.579-2.08c0 .16-.04.42-.1.56l-1.981 4.86c-.14.36-.08.54.16.54.12 0 .36-.08.76-.42 1.66-1.42 3.1-4.34 4-6.22.222-.1.44-.16.742-.16.66 0 1.12.22 1.4.44-.76 1.96-1.581 3.94-2.281 5.9-.08.24-.16.56.1.56.32 0 1.32-.78 1.82-1.3.24.04.36.18.36.46-.56.98-2.52 2.502-4.2 2.502-.5 0-.92-.421-.68-1.021l1.12-2.84h-.04c-1.06 1.5-3.261 3.86-4.861 3.86-.68 0-1.1-.48-1.1-1.04 0-.36.14-.76.3-1.18l1.66-4.181c.1-.26.08-.52-.08-.52-.4 0-1.22.78-1.78 1.22-.22-.08-.361-.2-.34-.48.76-1.02 2.6-2.38 4.12-2.38.48 0 .9.46.9.84m19.249-.744v1.236h-2.906v6.95h-1.582v-6.95h-2.907v-1.236zm3.897 0v3.445h4.248v-3.445h1.582v8.186h-1.582V53.04h-4.248v3.457h-1.582v-8.186zm13.573 0v1.236h-3.709v2.15h3.551v1.237h-3.55v2.326h3.79v1.237h-5.373v-8.186zm5.229 3.492c.414 0 .739-.104.976-.311.236-.207.354-.49.354-.85 0-.374-.117-.654-.351-.84-.235-.186-.57-.278-1.002-.278h-.985v2.279h1.008zm.357-3.492c.77 0 1.397.213 1.88.638.486.426.728.98.728 1.665 0 .464-.12.87-.361 1.215-.24.346-.596.619-1.07.818.263.14.495.332.698.574.204.242.456.65.756 1.225.5.992.87 1.675 1.114 2.05h-1.764a9.788 9.788 0 0 1-.492-.861c-.453-.871-.785-1.458-.996-1.761-.211-.302-.414-.517-.61-.644a1.208 1.208 0 0 0-.674-.191h-.574v3.457h-1.582v-8.185h2.947zm10.972 0v1.236h-3.709v2.15h3.552v1.237h-3.552v2.326h3.791v1.237h-5.373v-8.186zM28.419 17.66c-3.891 0-7.348-.373-10.692-.733-3.053-.33-5.936-.641-8.94-.641-2.451 0-4.718.216-6.911.659l-.56-2.538c2.392-.488 4.837-.725 7.455-.725 3.107 0 6.083.32 9.234.662 3.304.356 6.72.724 10.45.724 4.907 0 9.527-.632 14.49-1.985l.704 2.502c-5.124 1.395-10.112 2.075-15.23 2.075M44.48 16.5l.53-.15-1.302-4.627-.531.15a57.008 57.008 0 0 1-6.702 1.469V8.394c0-4.246.277-4.562 2.4-4.923l1.294-.227c.37-.27.37-1.31 0-1.58-2.493.09-4.802.136-6.972.136-2.216 0-4.526-.046-7.02-.136-.367.27-.367 1.31.002 1.58l1.293.227c2.124.36 2.4.677 2.4 4.923v5.546c-.471.012-.942.024-1.418.024-3.671 0-7.057-.366-10.331-.72a.745.745 0 0 0-.047-.003V8.394c0-4.246.278-4.562 2.402-4.923l1.293-.227c.369-.27.369-1.31 0-1.58-2.495.09-4.803.136-6.973.136-2.216 0-4.526-.046-7.018-.136-.37.27-.37 1.31 0 1.58l1.292.227c2.124.36 2.4.677 2.4 4.923v4.263a51.285 51.285 0 0 0-2.702-.08c-2.897 0-5.59.284-8.231.866L0 13.56l1.033 4.695.54-.12c2.283-.501 4.643-.746 7.215-.746.902 0 1.795.036 2.686.085v7.539c0 4.246-.277 4.563-2.401 4.924l-1.292.226c-.37.27-.37 1.309 0 1.58 2.492-.09 4.802-.135 7.018-.135 2.17 0 4.433.045 6.926.136.369-.272.416-1.31.047-1.581l-1.293-.226c-2.124-.361-2.402-.678-2.402-4.924v-6.94c3.229.347 6.572.69 10.342.69.486 0 .97-.013 1.455-.025v6.275c0 4.246-.277 4.563-2.401 4.924l-1.293.226c-.37.27-.37 1.309 0 1.58 2.492-.09 4.802-.135 7.018-.135 2.17 0 4.433.045 6.927.136.369-.272.415-1.31.045-1.581l-1.293-.226c-2.124-.361-2.401-.678-2.401-4.924v-6.815a60.87 60.87 0 0 0 8.005-1.7M59.605 1.691v2.174c-2.038.055-3.287.177-3.748.367-.446.19-.67.758-.67 1.706v14.875c0 2.614.314 4.47.942 5.567 1.061 1.911 3.231 2.866 6.512 2.866 3.351 0 5.626-1.152 6.827-3.454.642-1.26.963-3.029.963-5.304V8.398c0-1.72-.398-2.9-1.194-3.537-.782-.636-1.975-.968-3.58-.996V1.691h12.207v2.174c-1.634.204-2.716.502-3.246.894-.837.637-1.29 1.863-1.36 3.678l-.063 1.79v8.614l-.042 3.048c-.056 4.146-1.376 6.944-3.958 8.392-2.582 1.464-5.5 2.196-8.752 2.196-3.197 0-5.857-.509-7.978-1.524-3.28-1.599-4.92-4.437-4.92-8.515V5.898l-.043-.874c-.014-.339-.174-.603-.48-.792-.294-.204-.88-.312-1.76-.327l-2.094-.04V1.691h16.437zM80.132 29.53c2.066-.055 3.364-.474 3.895-1.26.544-.799.816-2.465.816-4.998V6.08c0-.108-.244-.379-.732-.813-.49-.446-.978-.778-1.466-.995a3.076 3.076 0 0 0-.88-.285 25.746 25.746 0 0 0-1.55-.223V1.691h10.89l16.667 19.183V8.154c0-1.817-.517-3.049-1.55-3.699-.614-.38-1.69-.61-3.224-.69V1.69h12.228v2.032c-1.913.162-3.162.664-3.748 1.504-.587.826-.88 2.33-.88 4.511V32.13h-2.68L87.628 8.72v15.993c0 2.033.538 3.4 1.612 4.106.629.42 1.71.656 3.246.71v2.215H80.132V29.53zm37.529-27.839h28.33l.65 11.278h-2.137a15.363 15.363 0 0 0-1.675-5.222c-1.423-2.669-3.322-4.003-5.694-4.004-.727 0-1.174.15-1.34.448-.155.284-.23.833-.23 1.645v21.865c0 .894.23 1.423.69 1.585.46.163 1.856.243 4.188.243v2.216h-17.338v-2.154l3.078-.102c.586-.027 1.033-.195 1.34-.508.307-.325.46-.825.461-1.503V5.024c0-.434-.098-.758-.293-.977-.182-.216-.649-.323-1.404-.323-2.26 0-4.055 1.212-5.38 3.637-.726 1.328-1.348 3.197-1.864 5.608h-2.094l.712-11.278zm30.77 27.839c1.997.027 3.245-.055 3.748-.244.516-.19.774-.779.775-1.768V5.511c0-.732-.23-1.17-.69-1.32-.462-.15-1.739-.244-3.833-.286V1.691h28.75l.334 10.85-2.135.042c-.88-3.509-2.206-5.839-3.979-6.99-1.773-1.166-3.965-1.748-6.575-1.748-1.717 0-2.862.19-3.434.57-.572.378-.858 1.177-.858 2.396v8.332c.223.014.383.027.481.04h.336c2.15 0 3.726-.737 4.732-2.213.558-.827.976-2.06 1.256-3.7h2.177v14.448l-2.114.04c-.21-2.505-.95-4.198-2.22-5.08-1.256-.88-2.806-1.32-4.648-1.32v9.631c0 1.112.258 1.816.774 2.113.53.287 1.815.427 3.853.427 3.42 0 5.982-.934 7.686-2.803 1.017-1.123 2.03-3.17 3.036-6.137l2.134.143-.502 11.012h-29.084V29.53z"></path><g transform="translate(216 .878)"><mask id="b" fill="#fff"><use xlink:href="#a"></use></mask><path d="M2.956 19.407c1.13 2.817 2.638 5.18 4.522 7.09 1.9 1.91 4.306 2.866 7.225 2.866 1.646 0 3.063-.427 4.25-1.28 1.186-.853 1.78-2.005 1.78-3.454 0-1.518-.58-2.67-1.738-3.455-.628-.42-1.752-.787-3.372-1.098l-3.077-.569c-2.932-.54-5.242-1.3-6.932-2.276-3.155-1.8-4.73-4.38-4.73-7.742 0-2.83 1.046-5.1 3.14-6.808C6.117.974 8.824.121 12.146.121c1.76 0 3.351.272 4.775.815.81.297 1.751.79 2.826 1.482L22.072.385h1.844l.543 10.934-2.135.04c-1.214-3.21-2.785-5.52-4.71-6.93-1.913-1.422-3.903-2.133-5.969-2.133-1.619 0-3 .393-4.146 1.179-1.144.772-1.716 1.815-1.716 3.13 0 1.396.62 2.465 1.863 3.21.67.405 1.654.745 2.953 1.017l3.727.771c3.503.72 6.05 1.598 7.642 2.643 2.582 1.68 3.873 4.184 3.873 7.516 0 2.82-1.04 5.155-3.119 7.011-2.079 1.858-4.747 2.784-7.999 2.785-1.674 0-3.28-.232-4.816-.692a12.018 12.018 0 0 1-4.124-2.152l-2.68 2.6H1.217L.883 19.468l2.073-.061z" fill="#FEFEFE" mask="url(#b)"></path></g><path d="M192.676 15.083c3.741 0 6.19-.257 7.35-.772 1.786-.8 2.68-2.608 2.68-5.426-.098-1.937-.705-3.265-1.822-3.983-1.117-.717-2.68-1.076-4.69-1.077-1.452 0-2.386.129-2.805.386-.42.245-.657.833-.713 1.768v9.104zm8.523-13.29c3.769.109 6.462 1.124 8.081 3.048 1.033 1.247 1.55 2.737 1.551 4.47 0 2.779-1.32 4.81-3.958 6.097-1.411.69-3.169 1.132-5.277 1.32 1.354.366 2.449.82 3.287 1.362 1.535 1.016 2.54 2.438 3.016 4.267l.943 3.618c.236.948.445 1.612.627 1.99.293.584.649.874 1.068.874.558 0 .998-.304 1.319-.914.336-.61.572-1.646.712-3.108l2.136.059c0 2.778-.712 4.702-2.136 5.772-1.424 1.057-3.092 1.584-5.004 1.584-2.122 0-3.763-.52-4.921-1.564-1.158-1.043-1.8-2.464-1.926-4.267l-.252-3.455c-.14-1.895-.538-3.311-1.192-4.246-.643-.935-1.934-1.403-3.874-1.403h-2.723v10.079c0 .936.126 1.518.377 1.748.265.217 1.032.332 2.304.345l2.03.06v2.216H180.51V29.53c2.038 0 3.273-.081 3.707-.243.446-.177.697-.705.754-1.585l.062-1.057V7.279c0-1.422-.083-2.322-.251-2.702-.168-.392-.663-.595-1.486-.61l-2.786-.061V1.69h17.464l3.225.102zm44.228 1.531v1.062h.697c.296 0 .512-.04.649-.126.136-.087.204-.223.205-.409 0-.194-.067-.33-.201-.409-.13-.079-.363-.118-.697-.118h-.653zm0 3.053h-.57V2.845h1.223c.433 0 .738.035.915.104.18.067.324.181.431.34.107.16.161.33.161.51 0 .27-.094.498-.283.683a1.121 1.121 0 0 1-.727.314c.133.055.258.147.375.275.119.124.267.33.448.617l.427.69h-.697l-.309-.554c-.224-.398-.401-.655-.531-.77-.131-.12-.306-.18-.524-.18h-.339v1.503z" fill="#FEFEFE"></path><path d="M246.305 1.285c.587 0 1.134.148 1.642.444.508.293.908.694 1.202 1.202.296.505.444 1.051.444 1.638a3.22 3.22 0 0 1-.44 1.642 3.234 3.234 0 0 1-1.202 1.197 3.24 3.24 0 0 1-1.646.44 3.273 3.273 0 0 1-2.852-1.633 3.23 3.23 0 0 1-.44-1.646c0-.59.146-1.137.44-1.642a3.257 3.257 0 0 1 1.206-1.202 3.24 3.24 0 0 1 1.646-.44m0 .545a2.64 2.64 0 0 0-1.937.805 2.633 2.633 0 0 0-.802 1.934c0 .758.267 1.403.802 1.938a2.644 2.644 0 0 0 1.937.797c.755 0 1.399-.268 1.934-.802.534-.534.8-1.178.8-1.933 0-.755-.268-1.4-.805-1.934a2.622 2.622 0 0 0-1.93-.805" fill="#FEFEFE"></path></g></svg>