<?xml version="1.0" encoding="utf-8"?>
<!-- Generator: Adobe Illustrator 21.1.0, SVG Export Plug-In . SVG Version: 6.00 Build 0)  -->
<svg version="1.1" id="Layer_1" xmlns="http://www.w3.org/2000/svg" xmlns:xlink="http://www.w3.org/1999/xlink" x="0px" y="0px"
	 viewBox="0 0 453.9 76.1" style="enable-background:new 0 0 453.9 76.1;" xml:space="preserve">
<style type="text/css">
	.st0{fill:#FFFFFF;}
	.st1{fill:#ED0B43;}
</style>
<g>
	<path class="st0" d="M0,29.2C0,17.1,8.8,0,29.4,0c16.8,0,29.3,10.6,29.3,28C58.8,44.7,47,58.5,29,58.5C8.5,58.5,0,42.6,0,29.2z
		 M51.6,30.1c0-17.9-10.9-27.5-22.7-27.5c-12.5,0-21.8,8.2-21.8,24.6c0,17.4,10.5,28.6,23.9,28.6C37.7,55.7,51.6,51.8,51.6,30.1z"/>
</g>
<g>
	<path class="st0" d="M70.8,56.7c-0.9-0.4-0.9-0.7-0.9-2.4c0-3.2,0.2-5.6,0.3-6.5c0.1-0.6,0.2-1,0.6-1c0.3,0,0.5,0.2,0.5,0.7
		c0,0.4,0,1.2,0.2,2.1c0.9,4.5,5,6.2,9,6.2c5.8,0,8.5-4,8.5-7.4c0-4-1.8-6.4-6.9-10.5l-2.8-2.2c-6.7-5.3-8-9-8-13.1
		c0-6.4,5.1-10.7,12.8-10.7c2.4,0,4.1,0.2,5.6,0.6c1.3,0.3,1.9,0.3,2.4,0.3c0.5,0,0.6,0.1,0.6,0.4c0,0.3-0.3,2.7-0.3,6.7
		c0,1-0.1,1.5-0.5,1.5c-0.3,0-0.4-0.3-0.5-0.8c-0.1-0.6-0.2-2.1-0.8-3.3c-0.3-0.6-1.9-3.3-7.8-3.3c-4.2,0-7.3,2.5-7.3,6.7
		c0,3.3,1.7,5.3,7.4,9.6l1.6,1.2c7.2,5.6,9.1,9.2,9.1,14.2c0,2.5-1,6.9-5.3,9.9c-2.7,1.7-6,2.4-9.4,2.4
		C76.2,58.2,73.5,57.9,70.8,56.7z"/>
</g>
<g>
	<path class="st0" d="M108.9,51.9c-5.9-5.1-7.4-11.9-7.4-17.7c0-3.9,1.5-10.8,7-16c3.7-3.6,9.4-6.2,18.7-6.2c3.2,0,5.8,0.3,9.2,0.8
		c2.2,0.3,4.4,0.7,6.1,0.8c0.6,0,0.6,0.3,0.6,0.7c0,0.6-0.2,1.2-0.3,3.4c-0.1,1.9-0.1,5.6-0.1,6.4c-0.1,1-0.2,1.3-0.6,1.3
		c-0.5,0-0.6-0.4-0.6-1.3c0-2-1-4.7-2.7-6c-2.1-1.8-6.9-3.5-12.3-3.5c-7.7,0-11.2,2.2-13.3,4c-4.5,4.1-5.6,9.1-5.6,15.2
		c0,11.5,9.4,21.6,21.6,21.6c4.7,0,8.2-0.5,10.6-2.8c1.2-1.3,1.9-3.1,2.3-5c0.1-0.7,0.3-1,0.8-1c0.3,0,0.3,0.5,0.3,1
		c0,0.6-0.9,6.2-1.4,7.7c-0.4,1.1-0.6,1.3-1.6,1.7c-2.4,1-7.1,1.4-11,1.4C120.1,58.2,113.8,56.2,108.9,51.9z"/>
</g>
<g>
	<path class="st0" d="M158.1,40.5c-0.3,0-0.6,0.2-0.7,0.6l-3.1,8.7c-0.7,1.9-1.2,3.8-1.2,4.9c0,1.2,0.8,1.8,2.3,1.8
		c0.2,0,0.3,0,0.5,0c0.6,0,0.8,0.2,0.8,0.5c0,0.3-0.6,0.5-1,0.5c-1.5,0-4.7-0.2-5.5-0.2c-0.7,0-3.7,0.2-6.7,0.2
		c-0.8,0-1.1-0.1-1.1-0.5c0-0.3,0.3-0.5,0.8-0.5c0.3,0,1,0,1.4-0.1c3-0.3,4.2-2.6,5.3-5.5l13.9-36.6c0.8-2,1-2.4,1.5-2.4
		c0.3,0,0.6,0.3,1.4,2.2c1,2.3,10.4,26.5,14.1,35.2c2.3,5.5,4.3,6.4,5.3,6.7c0.9,0.3,1.9,0.3,2.4,0.3c0.5,0,0.8,0.1,0.8,0.5
		s-0.3,0.5-1,0.5c-0.7,0-5.9,0-10.5-0.1c-1.3-0.1-1.7-0.1-1.7-0.5c0-0.2,0.2-0.4,0.5-0.5c0.3-0.1,0.7-0.5,0.3-1.5l-5.5-13.9
		c-0.1-0.2-0.3-0.3-0.6-0.3H158.1z M169.9,38.1c0.3,0,0.3-0.2,0.2-0.4l-5.5-15.3c-0.3-1-0.4-1-0.8,0l-5.2,15.3
		c-0.1,0.3,0,0.4,0.1,0.4H169.9z"/>
</g>
<g>
	<path class="st0" d="M196.5,29.9c0-9.2,0-10.8-0.1-12.7c-0.1-1.9-0.6-2.9-2.8-3.3c-0.4-0.1-1.1-0.1-1.7-0.1c-0.5,0-0.8-0.1-0.8-0.4
		c0-0.3,0.2-0.5,0.8-0.5c3,0,7.2,0.2,7.4,0.2c0.6,0,5.3-0.2,7.3-0.2c3.9,0,8.1,0.3,11.4,2.6c1.3,1,4.2,3.7,4.2,8.5
		c0,3.8-1.9,8.7-7.4,13.1c5.1,6.2,9.2,11.4,12.8,15.1c3.3,3.4,5.4,4,7.4,4.2c0.5,0.1,1.9,0.1,2.2,0.1c0.6,0,0.8,0.2,0.8,0.5
		c0,0.3-0.3,0.5-1.2,0.5h-4.9c-3.3,0-4.8-0.2-6.3-0.8c-2.9-1.2-5-4.4-8.6-9c-2.7-3.3-5.5-7.1-6.7-8.5c-0.3-0.3-0.4-0.4-0.8-0.4
		l-7.1-0.1c-0.3,0-0.3,0.1-0.3,0.3v1c0,5.6,0,10.6,0.3,13.1c0.2,1.7,0.4,3.1,2.7,3.3c0.7,0.1,1.5,0.1,2,0.1c0.6,0,0.9,0.2,0.9,0.4
		c0,0.3-0.3,0.6-1,0.6c-3.6,0-7.5-0.2-7.8-0.2c-1.1,0-4.2,0.2-6,0.2c-0.7,0-1-0.1-1-0.6c0-0.2,0.4-0.4,0.8-0.4c0.5,0,1,0,1.5-0.1
		c1.2-0.2,1.6-1,1.8-2.6c0.3-2.5,0.3-8.2,0.3-13.4V29.9z M201.8,34.9c0,0.3,0.1,0.7,0.3,0.8c0.9,0.5,3.7,0.9,6.2,0.9
		c1.5,0,3.2-0.1,4.6-1c2.1-1.3,3.5-4.4,3.5-8.8c0-7.6-4-11.7-10.2-11.7c-1.7,0-3.2,0.1-4,0.3c-0.2,0.1-0.4,0.3-0.4,0.6V34.9z"/>
</g>
<g>
	<path class="st1" d="M269.9,40.6c0,12.1,0,16.7-2.2,22c-1.6,3.7-4.9,7.2-10.9,11.4c-1,0.7-2.2,1.5-2.9,1.9
		c-0.1,0.1-0.3,0.1-0.5,0.1s-0.5-0.1-0.5-0.4c0-0.4,0.4-0.7,1-1.1c0.9-0.5,1.9-1.4,2.6-2.1c4.9-4.9,7.2-8.9,7.2-28.1V22.7
		c0-11.6,0-13.7-0.1-16.1c-0.1-2.5-0.7-3.7-3.2-4.3c-0.6-0.1-1.6-0.2-2.3-0.2c-0.5,0-0.8-0.2-0.8-0.5s0.3-0.5,1.1-0.5
		c3.4,0,8.1,0.2,8.5,0.2c0.4,0,5.1-0.2,7.3-0.2c0.8,0,1.2,0.1,1.2,0.6c0,0.3-0.4,0.4-0.8,0.4c-0.5,0-1.1,0.1-1.8,0.1
		c-2,0.2-2.5,1.7-2.6,4.3c-0.1,2.4-0.1,4.5-0.1,16.1V40.6z"/>
</g>
<g>
	<path class="st1" d="M295,40.5c-0.3,0-0.6,0.2-0.7,0.6l-3.1,8.7c-0.7,1.9-1.2,3.8-1.2,4.9c0,1.2,0.8,1.8,2.3,1.8c0.2,0,0.3,0,0.5,0
		c0.6,0,0.8,0.2,0.8,0.5c0,0.3-0.6,0.5-1,0.5c-1.5,0-4.7-0.2-5.5-0.2c-0.7,0-3.7,0.2-6.7,0.2c-0.8,0-1.1-0.1-1.1-0.5
		c0-0.3,0.3-0.5,0.8-0.5c0.3,0,1,0,1.4-0.1c3-0.3,4.2-2.6,5.3-5.5l13.9-36.6c0.8-2,1-2.4,1.5-2.4c0.3,0,0.6,0.3,1.4,2.2
		c1,2.3,10.4,26.5,14.1,35.2c2.3,5.5,4.3,6.4,5.3,6.7c0.9,0.3,1.9,0.3,2.4,0.3s0.8,0.1,0.8,0.5s-0.3,0.5-1,0.5
		c-0.7,0-5.9,0-10.5-0.1c-1.3-0.1-1.7-0.1-1.7-0.5c0-0.2,0.2-0.4,0.5-0.5c0.3-0.1,0.7-0.5,0.3-1.5l-5.5-13.9
		c-0.1-0.2-0.3-0.3-0.6-0.3H295z M306.8,38.1c0.3,0,0.3-0.2,0.2-0.4l-5.5-15.3c-0.3-1-0.4-1-0.8,0l-5.2,15.3c-0.1,0.3,0,0.4,0.1,0.4
		H306.8z"/>
</g>
<g>
	<path class="st1" d="M382,49.8c0.2,1.7,0.6,5.6,3.3,6.2c1.2,0.3,2.6,0.4,3.5,0.5c0.3,0,0.9,0.1,0.9,0.4s-0.3,0.6-1,0.6
		c-1.2,0-8.7-0.3-11-0.4c-1.5-0.1-2.1-0.3-2.1-0.6c0-0.2,0.3-0.5,0.6-0.6c0.3-0.1,0.6-1,0.4-1.9l-3.1-29.7L359,54
		c-1.3,2.7-1.5,3.3-2.2,3.3c-0.4,0-0.8-0.6-2.1-3c-1.1-2-6.7-13.1-7.1-13.7c-0.4-0.8-7.2-14.3-7.8-15.8l-2.6,26.7
		c-0.1,1-0.1,1.6-0.1,2.6c0,0.8,0.3,1.8,1.7,2.1c0.8,0.1,1.2,0.1,1.9,0.2c0.6,0.1,0.7,0.3,0.7,0.4c0,0.5-0.4,0.6-1.2,0.6
		c-2.2,0-5.2-0.2-5.8-0.2c-0.7,0-3.6,0.2-5.3,0.2c-0.6,0-1-0.1-1-0.6c0-0.1,0.3-0.4,0.9-0.4c0.5,0,0.6,0,1.3-0.1
		c1.7-0.1,2.3-1.8,2.6-4.6l4.6-38.1c0.1-1.2,0.4-1.7,0.8-1.7s0.6,0.2,1,1.1l18.6,36l17.7-35.9c0.3-0.8,0.6-1.2,1-1.2
		s0.6,0.6,0.7,1.7L382,49.8z"/>
</g>
<g>
	<path class="st1" d="M398.9,29.9c0-9.1,0-10.8-0.1-12.6c-0.1-1.9-0.6-2.9-2.6-3.3c-0.4-0.1-1.1-0.1-1.7-0.1c-0.5,0-0.9-0.2-0.9-0.4
		c0-0.4,0.3-0.6,1-0.6c1.4,0,3.3,0.1,7.1,0.2c0.3,0,12.7,0,14.1-0.1s2.2-0.1,2.7-0.3c0.4-0.1,0.5-0.2,0.8-0.2c0.1,0,0.3,0.1,0.3,0.5
		c0,0.4-0.4,1.4-0.6,3.1c-0.1,1.2-0.1,2.3-0.2,3.6c0,0.6-0.1,1-0.5,1c-0.3,0-0.5-0.3-0.5-0.8c-0.1-1-0.3-1.7-0.5-2.2
		c-0.4-1.4-1-1.9-4.5-2.1c-0.9-0.1-7.8-0.1-7.9-0.1c-0.2,0-0.3,0.1-0.3,0.6v15.8c0,0.4,0.1,0.7,0.4,0.7c0.8,0,7.9-0.1,9.4-0.2
		c1.6-0.1,2.6-0.3,3.2-1c0.3-0.4,0.5-0.6,0.8-0.6c0.1,0,0.3,0.1,0.3,0.4c0,0.3-0.3,1.7-0.5,3.7c-0.2,1.9-0.2,3.3-0.3,4.2
		c-0.1,0.6-0.2,0.8-0.5,0.8c-0.3,0-0.4-0.4-0.4-0.9c0-0.4-0.1-1.1-0.2-1.7c-0.3-0.9-0.7-1.9-3.3-2.1c-1.6-0.1-7.2-0.3-8.3-0.3
		c-0.4,0-0.5,0.2-0.5,0.5v5.1c0,2.2-0.1,8.3,0,9.4c0.1,2.6,0.5,3.9,1.9,4.5c1,0.5,2.7,0.6,5.1,0.6c1.3,0,3.5,0.1,5.3-0.4
		c2.1-0.6,2.6-2,3.1-4.6c0.1-0.7,0.3-1,0.6-1c0.4,0,0.4,0.6,0.4,1c0,0.5-0.6,4.9-0.8,6c-0.3,1.4-0.8,1.5-3.1,1.5
		c-4.6,0-6.5-0.1-9-0.1c-2.4-0.1-5.6-0.2-8.2-0.2c-1.6,0-2.9,0.2-4.6,0.2c-0.6,0-1-0.1-1-0.5c0-0.3,0.3-0.5,0.6-0.5
		c0.4,0,0.9-0.1,1.4-0.2c1.2-0.3,2.1-1.2,2.2-5.5c0.1-2.4,0.1-5.2,0.1-10.5V29.9z"/>
</g>
<g>
	<path class="st1" d="M431,56.7c-0.9-0.4-0.9-0.7-0.9-2.4c0-3.2,0.2-5.6,0.3-6.5c0.1-0.6,0.2-1,0.6-1s0.5,0.2,0.5,0.7
		c0,0.4,0,1.2,0.2,2.1c0.9,4.5,5,6.2,9,6.2c5.8,0,8.5-4,8.5-7.4c0-4-1.8-6.4-6.9-10.5l-2.8-2.2c-6.7-5.3-8-9-8-13.1
		c0-6.4,5.1-10.7,12.8-10.7c2.4,0,4.1,0.2,5.6,0.6c1.3,0.3,1.9,0.3,2.4,0.3c0.5,0,0.6,0.1,0.6,0.4c0,0.3-0.3,2.7-0.3,6.7
		c0,1-0.1,1.5-0.5,1.5s-0.4-0.3-0.5-0.8c-0.1-0.6-0.2-2.1-0.8-3.3c-0.3-0.6-1.9-3.3-7.8-3.3c-4.2,0-7.3,2.5-7.3,6.7
		c0,3.3,1.7,5.3,7.4,9.6l1.6,1.2c7.2,5.6,9.1,9.2,9.1,14.2c0,2.5-1,6.9-5.3,9.9c-2.7,1.7-6,2.4-9.4,2.4
		C436.3,58.2,433.6,57.9,431,56.7z"/>
</g>
</svg>
